<svg width="256" height="256" viewBox="0 0 256 256" fill="none" xmlns="http://www.w3.org/2000/svg">
  <defs>
    <linearGradient id="hexBlue" x1="38" y1="30" x2="208" y2="228" gradientUnits="userSpaceOnUse">
      <stop offset="0" stop-color="#0F6BFF"/>
      <stop offset="0.52" stop-color="#113D9D"/>
      <stop offset="1" stop-color="#0B1558"/>
    </linearGradient>
    <linearGradient id="hexSilver" x1="64" y1="52" x2="193" y2="201" gradientUnits="userSpaceOnUse">
      <stop offset="0" stop-color="#F8FBFF"/>
      <stop offset="0.48" stop-color="#C9D0DB"/>
      <stop offset="1" stop-color="#8B94A6"/>
    </linearGradient>
    <linearGradient id="chainGlow" x1="72" y1="78" x2="202" y2="170" gradientUnits="userSpaceOnUse">
      <stop offset="0" stop-color="#4CE8FF"/>
      <stop offset="0.5" stop-color="#1EC7FF"/>
      <stop offset="1" stop-color="#0D8BFF"/>
    </linearGradient>
  </defs>
  <path d="M128 14L225 70V182L128 238L31 182V70L128 14Z" fill="url(#hexBlue)"/>
  <path d="M128 35L206.5 80.5V171.5L128 217L49.5 171.5V80.5L128 35Z" fill="#07103F" stroke="url(#hexSilver)" stroke-width="10"/>
  <path d="M80 92C80 77.6 91.6 66 106 66H180C194.4 66 206 77.6 206 92V132C206 146.4 194.4 158 180 158H142V134H177C183.6 134 189 128.6 189 122V102C189 95.4 183.6 90 177 90H108C101.4 90 96 95.4 96 102V109C96 115.6 90.6 121 84 121C77.4 121 72 115.6 72 109V102L72.1 101C72.7 85.7 85.3 73.5 100.7 73.5" fill="url(#chainGlow)"/>
  <path d="M176 145C176 159.4 164.4 171 150 171H76C61.6 171 50 159.4 50 145V105C50 90.6 61.6 79 76 79H114V103H87C80.4 103 75 108.4 75 115V135C75 141.6 80.4 147 87 147H156C162.6 147 168 141.6 168 135V128C168 121.4 173.4 116 180 116C186.6 116 192 121.4 192 128V135L191.9 136C191.3 151.3 178.7 163.5 163.3 163.5" fill="url(#chainGlow)"/>
</svg>
